<svg
  xmlns="http://www.w3.org/2000/svg"
  viewBox="0 0 512 512"
  width="512"
  height="512"
>
  <rect x="64" y="160" width="384" height="288" rx="32" fill="#FFE14D"/>
  <rect x="192" y="160" width="256" height="288" rx="32" fill="#FFB25C"/>
  <rect x="320" y="160" width="128" height="288" rx="32" fill="#FF6F91"/>

  <path
    d="M160 160V96C160 64 192 48 224 48C256 48 288 64 288 96V160"
    fill="none"
    stroke="#FFB25C"
    stroke-width="24"
    stroke-linecap="round"
  />
  <path
    d="M288 160V96C288 64 320 48 352 48C384 48 416 64 416 96V160"
    fill="none"
    stroke="#FF6F91"
    stroke-width="24"
    stroke-linecap="round"
  />

  <rect x="176" y="224" width="128" height="160" rx="24" fill="#9DE7F5"/>
  <rect x="176" y="224" width="64" height="160" rx="24" fill="#7CD4FF"/>

  <rect x="200" y="320" width="112" height="32" rx="16" fill="#FFFFFF" opacity="0.85"/>
</svg>
